<svg version="1.1" xmlns="http://www.w3.org/2000/svg" viewBox="-1710.744265690301 -1254.7 6212.944265690301 1937.4">
<desc>Created with Snap</desc>
<defs></defs>
<g><g transform="matrix(13.3164,0,0,13.3164,-1480.0336,-949.068)">
<path fill="#000000" d="M93.978,22.513c-0.004-0.025-0.008-0.05-0.012-0.075c-0.018-0.114-0.042-0.228-0.073-0.34  c-0.006-0.019-0.011-0.039-0.016-0.058c-0.037-0.125-0.082-0.247-0.135-0.368c-0.012-0.024-0.024-0.048-0.036-0.072  c-0.028-0.06-0.056-0.12-0.088-0.179c-0.019-0.033-0.04-0.063-0.06-0.095c-0.019-0.032-0.037-0.062-0.058-0.094  c-0.065-0.1-0.135-0.196-0.209-0.286c-0.006-0.007-0.012-0.016-0.018-0.023c-0.087-0.103-0.18-0.197-0.276-0.286  c-0.019-0.017-0.038-0.033-0.059-0.049c-0.086-0.076-0.176-0.145-0.27-0.21c-0.019-0.013-0.036-0.026-0.055-0.039  c-0.11-0.073-0.226-0.138-0.343-0.196c-0.008-0.003-0.015-0.009-0.021-0.013l-20.518-9.854L51.217,0.423  c-0.848-0.407-1.834-0.407-2.683,0l-20.517,9.854L7.5,20.13c-0.007,0.003-0.014,0.008-0.021,0.012  c-0.119,0.059-0.234,0.124-0.345,0.197c-0.019,0.012-0.036,0.025-0.055,0.038c-0.093,0.064-0.183,0.134-0.27,0.21  c-0.02,0.017-0.04,0.033-0.059,0.05c-0.096,0.088-0.189,0.182-0.275,0.284c-0.008,0.01-0.015,0.02-0.023,0.03  c-0.072,0.088-0.14,0.182-0.204,0.278C6.23,21.263,6.21,21.295,6.19,21.328c-0.019,0.031-0.04,0.061-0.058,0.093  c-0.032,0.058-0.058,0.116-0.085,0.175c-0.013,0.026-0.027,0.051-0.039,0.078c-0.053,0.12-0.098,0.242-0.134,0.365  c-0.006,0.021-0.011,0.043-0.017,0.065c-0.03,0.11-0.055,0.221-0.072,0.332c-0.004,0.027-0.009,0.053-0.013,0.08  c-0.018,0.134-0.028,0.268-0.028,0.401c0,0.002,0,0.005,0,0.007v25.243v0.104v25.242c0,1.126,0.611,2.164,1.596,2.71l19.928,11.051  c0.178,0.163,0.373,0.31,0.589,0.431L48.373,99.08c0.001,0.001,0.002,0.002,0.004,0.002c0.109,0.062,0.223,0.114,0.339,0.161  c0.02,0.008,0.039,0.015,0.059,0.021c0.092,0.035,0.188,0.065,0.285,0.094c0.03,0.008,0.062,0.016,0.092,0.023  c0.089,0.021,0.179,0.038,0.271,0.052c0.03,0.004,0.061,0.01,0.091,0.014c0.119,0.014,0.238,0.022,0.36,0.022  s0.242-0.009,0.36-0.022c0.031-0.004,0.061-0.01,0.092-0.014c0.092-0.014,0.183-0.03,0.271-0.052  c0.03-0.008,0.062-0.016,0.092-0.023c0.098-0.028,0.192-0.059,0.286-0.094c0.019-0.007,0.039-0.014,0.059-0.021  c0.115-0.047,0.229-0.1,0.338-0.161c0.002,0,0.003-0.001,0.005-0.002l20.517-11.376c0.217-0.121,0.411-0.268,0.588-0.431  l19.929-11.051c0.984-0.546,1.596-1.584,1.596-2.71V48.271v-0.104V22.923c0-0.001,0-0.003,0-0.005  C94.007,22.783,93.995,22.648,93.978,22.513z M11.94,28.184l14.32,7.941v18.262l-14.32-7.941V28.184z M29.358,16.506l13.772,6.615  l-13.772,7.637l-13.772-7.637L29.358,16.506z M70.392,16.506l13.772,6.615l-13.772,7.637L56.62,23.121L70.392,16.506z   M49.875,67.482l-14.129-7.835l14.129-7.835l14.128,7.835L49.875,67.482z M67.294,54.387l-14.32-7.941V28.184l14.32,7.941V54.387z   M46.777,46.445l-14.321,7.941V36.125l14.321-7.941V46.445z M32.457,64.907l14.321,7.942V91.11l-14.321-7.94V64.907z M52.974,72.849  l14.32-7.941V83.17l-14.32,7.94V72.849z M73.49,54.387V36.125l14.321-7.941v18.262L73.49,54.387z M49.875,6.652l13.361,6.417  l-13.361,6.417l-13.361-6.417L49.875,6.652z M11.94,53.53l14.32,7.941v18.159l-14.32-7.941V53.53z M73.49,79.631V61.472  l14.321-7.941v18.159L73.49,79.631z" style="">
</path>
<desc>Created with Snap</desc>
<defs></defs>
</g>
<g><g transform="matrix(1,0,0,-1,0,0)">
<path d="M298 330L515 56Q524 45 524 30Q524 16 514 6Q504 -4 487 -4Q470 -4 458 10L247 280L154 186L154 33Q154 18 143 7Q132 -4 116 -4Q101 -4 90 7Q79 18 79 33L79 538Q79 553 90 564Q101 576 116 576Q131 576 142 565Q154 554 154 538L154 278L434 562Q444 575 460 575Q477 576 487 566Q497 557 497 541Q497 526 487 518L298 330ZM1089 576Q1104 576 1115 565Q1126 554 1126 538L1126 49Q1126 27 1110 11Q1094 -4 1072 -4L1062 -4Q1035 -4 1019 18L702 476L702 33Q702 18 691 7Q680 -4 664 -4Q649 -4 638 7Q627 18 627 33L627 522Q627 544 642 560Q658 576 681 576L691 576Q717 576 737 551L1052 96L1052 538Q1052 553 1063 564Q1074 576 1089 576ZM1330 498Q1408 580 1538 580Q1668 580 1746 498Q1822 417 1825 286Q1822 156 1746 74Q1668 -8 1538 -8Q1408 -8 1330 74Q1252 156 1250 286Q1252 416 1330 498ZM1538 62Q1638 62 1695 126Q1751 188 1751 286Q1751 384 1695 446Q1637 511 1538 510Q1438 510 1380 446Q1324 384 1325 286Q1325 188 1380 126Q1438 62 1538 62ZM2282 576Q2296 576 2308 567Q2320 558 2324 545L2463 94L2600 546Q2609 576 2638 576Q2654 576 2664 566Q2674 557 2674 546Q2674 535 2671 526L2511 33Q2498 -4 2462 -4Q2446 -4 2432 6Q2419 16 2414 33L2282 450L2150 33Q2145 17 2131 6Q2118 -4 2102 -4Q2067 -4 2053 33L1893 526Q1891 535 1891 546Q1891 557 1900 566Q1910 576 1925 576Q1955 576 1963 546L2101 94L2239 545Q2243 559 2255 567Q2268 576 2282 576ZM3582 576Q3605 576 3620 560Q3636 544 3636 522L3636 33Q3636 18 3625 7Q3614 -4 3599 -4Q3584 -4 3573 7Q3562 18 3562 33L3562 498L3372 30Q3366 15 3352 5Q3338 -4 3320 -4Q3302 -4 3288 5Q3274 14 3267 30L3078 498L3078 33Q3078 18 3067 7Q3056 -4 3040 -4Q3025 -4 3014 7Q3003 18 3003 33L3003 522Q3003 544 3018 560Q3034 576 3057 576L3084 576Q3100 576 3113 566Q3127 556 3134 542L3320 78L3506 542Q3512 556 3525 566Q3539 576 3556 576L3582 576ZM4160 70Q4174 70 4184 59Q4195 49 4195 34Q4195 20 4184 10Q4174 0 4160 0L3831 0Q3816 0 3805 11Q3794 22 3794 37L3794 534Q3794 549 3805 560Q3816 572 3831 572L4160 572Q4174 572 4184 561Q4195 551 4195 537Q4195 523 4184 512Q4174 502 4160 502L3869 502L3869 321L4130 321Q4144 321 4154 311Q4165 301 4165 286Q4165 272 4155 261Q4145 251 4130 251L3869 251L3869 70L4160 70Z" fill="#000000" style="">
</path>
</g>
</g>
</g>
</svg>